<?xml version="1.0" encoding="UTF-8"?>
<svg version="1.1" xmlns="http://www.w3.org/2000/svg" width="59" height="54">
<path d="M0 0 C0.9583374 0.00523682 1.9166748 0.01047363 2.90405273 0.01586914 C4.45576172 0.02070313 4.45576172 0.02070313 6.03881836 0.02563477 C7.12743164 0.03401367 8.21604492 0.04239258 9.33764648 0.05102539 C10.97636719 0.05779297 10.97636719 0.05779297 12.64819336 0.06469727 C15.35723144 0.07652713 18.06616248 0.09300996 20.77514648 0.11352539 C21.9169912 3.48823559 21.61923494 5.50785603 20.56030273 8.87915039 C20.31417236 9.68126953 20.06804199 10.48338867 19.81445312 11.30981445 C19.33093384 12.82140137 19.33093384 12.82140137 18.83764648 14.36352539 C17.82702148 17.58102539 16.81639648 20.79852539 15.77514648 24.11352539 C7.85514648 24.11352539 -0.06485352 24.11352539 -8.22485352 24.11352539 C-9.58586242 21.39150758 -8.8845052 20.25406924 -8.04516602 17.35961914 C-7.77575195 16.42311523 -7.50633789 15.48661133 -7.22875977 14.52172852 C-6.9387207 13.54139648 -6.64868164 12.56106445 -6.34985352 11.55102539 C-6.06754883 10.56682617 -5.78524414 9.58262695 -5.49438477 8.56860352 C-3.04757055 0.15550536 -3.04757055 0.15550536 0 0 Z " fill="#4D4CEF" transform="translate(27.224853515625,27.886474609375)"/>
<path d="M0 0 C7.92 0 15.84 0 24 0 C25.3610089 2.72201781 24.65965169 3.85945615 23.8203125 6.75390625 C23.55089844 7.69041016 23.28148438 8.62691406 23.00390625 9.59179688 C22.71386719 10.57212891 22.42382812 11.55246094 22.125 12.5625 C21.84269531 13.54669922 21.56039062 14.53089844 21.26953125 15.54492188 C19.1429027 22.8570973 19.1429027 22.8570973 18 24 C16.29227642 24.08713831 14.58101351 24.10700007 12.87109375 24.09765625 C11.31938477 24.09282227 11.31938477 24.09282227 9.73632812 24.08789062 C8.64771484 24.07951172 7.55910156 24.07113281 6.4375 24.0625 C4.7987793 24.05573242 4.7987793 24.05573242 3.12695312 24.04882812 C0.41791505 24.03699826 -2.29101599 24.02051543 -5 24 C-6.14184472 20.6252898 -5.84408845 18.60566936 -4.78515625 15.234375 C-4.53902588 14.43225586 -4.29289551 13.63013672 -4.03930664 12.80371094 C-3.71696045 11.79598633 -3.39461426 10.78826172 -3.0625 9.75 C-1.5465625 4.92375 -1.5465625 4.92375 0 0 Z " fill="#2BADFA" transform="translate(16,2)"/>
<path d="M0 0 C4.62 0 9.24 0 14 0 C15 2 15 2 14.22265625 4.8203125 C13.1484375 7.88020833 12.07421875 10.94010417 11 14 C6.38 14 1.76 14 -3 14 C-2.40380045 9.13103697 -1.43023178 4.67209049 0 0 Z " fill="#3982F5" transform="translate(39,12)"/>
<path d="M0 0 C4.29 0 8.58 0 13 0 C14.38719899 5.54879595 12.77443997 8.60570251 11 14 C6.38 14 1.76 14 -3 14 C-2.5186854 8.6253203 -2.03657256 5.0914314 0 0 Z " fill="#3F77F4" transform="translate(9,28)"/>
</svg>
